<svg width="410" height="410" viewBox="0 0 410 410" fill="none" xmlns="http://www.w3.org/2000/svg">
<rect width="410" height="410" fill="black"/>
<path d="M113.875 154.312H197.062V171.688H133.688V191.188H189.812V207.5H133.688V234.688H198.375V252H113.875V154.312ZM244.348 194.688L267.535 178C270.785 175.708 273.41 173.75 275.41 172.125C277.41 170.458 278.973 169 280.098 167.75C281.223 166.458 281.973 165.312 282.348 164.312C282.723 163.271 282.91 162.229 282.91 161.188C282.91 158.646 281.889 156.646 279.848 155.188C277.806 153.729 274.639 153 270.348 153C266.973 153 263.452 153.542 259.785 154.625C256.118 155.708 252.493 157.312 248.91 159.438L242.66 147.75C246.827 145.125 251.348 143.104 256.223 141.688C261.139 140.229 266.243 139.5 271.535 139.5C276.16 139.5 280.181 140.062 283.598 141.188C287.014 142.312 289.848 143.833 292.098 145.75C294.348 147.667 296.014 149.896 297.098 152.438C298.223 154.938 298.785 157.583 298.785 160.375C298.785 162.083 298.514 163.917 297.973 165.875C297.473 167.792 296.41 169.875 294.785 172.125C293.202 174.375 290.952 176.812 288.035 179.438C285.118 182.062 281.285 184.938 276.535 188.062L266.848 195H300.848V208.375H244.348V194.688Z" fill="white"/>
</svg>
